<svg width="1600" height="900" viewBox="0 0 1600 900" xmlns="http://www.w3.org/2000/svg">
  <rect width="1600" height="900" fill="#eaf2fa"/>
  <rect width="228" height="900" fill="#20283d"/>
  <g font-family="Inter, Arial, sans-serif">
    <rect x="20" y="28" width="40" height="40" rx="6" fill="#ffffff"/>
    <text x="74" y="50" fill="#ffffff" font-size="18" font-weight="900">TESS</text>
    <text x="74" y="72" fill="#a7b0c3" font-size="14" font-weight="800">Payments Services</text>
    <rect x="10" y="108" width="206" height="46" rx="8" fill="#151b2f"/>
    <text x="42" y="138" fill="#ffffff" font-size="16" font-weight="900">SoftPOS Admin</text>
    <rect x="10" y="164" width="206" height="46" rx="8" fill="#151b2f"/>
    <text x="42" y="194" fill="#ffffff" font-size="16" font-weight="900">Dashboard</text>
    <text x="42" y="248" fill="#a7b0c3" font-size="16" font-weight="800">Merchants</text>
    <text x="42" y="302" fill="#a7b0c3" font-size="16" font-weight="800">Transactions</text>
    <text x="42" y="356" fill="#a7b0c3" font-size="16" font-weight="800">Create Merchant</text>
    <text x="42" y="410" fill="#a7b0c3" font-size="16" font-weight="800">Users</text>

    <rect x="228" width="1372" height="88" fill="#ffffff"/>
    <text x="254" y="52" fill="#64748b" font-size="16" font-weight="800">Jul 22 09:17 PM (UTC+03:00)</text>
    <rect x="1188" y="26" width="96" height="44" rx="8" fill="#ffffff" stroke="#cbd5e1"/>
    <text x="1226" y="54" fill="#334155" font-size="16" font-weight="800">Refresh</text>
    <rect x="1296" y="26" width="44" height="44" rx="8" fill="#38a8f3"/>
    <text x="1310" y="58" fill="#ffffff" font-size="30">+</text>
    <rect x="1350" y="26" width="124" height="44" rx="8" fill="#e2e8f0" stroke="#cbd5e1"/>
    <text x="1380" y="54" fill="#334155" font-size="16" font-weight="900">Demo Admin</text>
    <rect x="1486" y="26" width="94" height="44" rx="8" fill="#ffffff" stroke="#cbd5e1"/>
    <text x="1516" y="54" fill="#334155" font-size="16" font-weight="900">Sign out</text>

    <text x="254" y="148" fill="#1f2937" font-size="30" font-weight="900">Dashboard</text>
    <text x="254" y="178" fill="#64748b" font-size="16" font-weight="800">SoftPOS Admin / Dashboard</text>
    <text x="254" y="240" fill="#64748b" font-size="16" font-weight="800">Since Aug 30, 2026, 2:00 AM</text>

    <rect x="254" y="272" width="380" height="210" rx="10" fill="#38a8f3"/>
    <text x="282" y="326" fill="#ffffff" font-size="28" font-weight="900">Welcome Demo Admin</text>
    <text x="282" y="354" fill="#e0f2fe" font-size="17" font-weight="800">Transactions processed</text>
    <rect x="282" y="390" width="326" height="72" rx="16" fill="#248dd1"/>
    <text x="328" y="430" fill="#ffffff" font-size="30" font-weight="900">1</text>
    <text x="450" y="430" fill="#ffffff" font-size="30" font-weight="900">1</text>
    <text x="560" y="430" fill="#ffffff" font-size="30" font-weight="900">160</text>

    <rect x="650" y="272" width="224" height="210" rx="10" fill="#ecfdf5"/>
    <text x="684" y="398" fill="#111827" font-size="42" font-weight="900">160</text>
    <text x="684" y="430" fill="#64748b" font-size="17" font-weight="800">Total payments</text>
    <rect x="892" y="272" width="224" height="210" rx="10" fill="#ecfeff"/>
    <text x="926" y="398" fill="#111827" font-size="42" font-weight="900">19</text>
    <text x="926" y="430" fill="#64748b" font-size="17" font-weight="800">Successful</text>
    <rect x="1134" y="272" width="224" height="210" rx="10" fill="#fff1f2"/>
    <text x="1168" y="398" fill="#111827" font-size="42" font-weight="900">124</text>
    <text x="1168" y="430" fill="#64748b" font-size="17" font-weight="800">Declined / failed</text>
    <rect x="1376" y="272" width="184" height="210" rx="10" fill="#fffbeb"/>
    <text x="1410" y="398" fill="#111827" font-size="42" font-weight="900">9</text>
    <text x="1410" y="430" fill="#64748b" font-size="17" font-weight="800">Cancelled</text>

    <rect x="254" y="502" width="880" height="340" rx="10" fill="#ffffff" stroke="#cbd5e1"/>
    <text x="282" y="548" fill="#1f2937" font-size="24" font-weight="900">Approved sales</text>
    <text x="998" y="548" fill="#64748b" font-size="16" font-weight="900">QAR 1,032.62 net</text>
    <line x1="282" y1="758" x2="1080" y2="758" stroke="#e2e8f0" stroke-width="3"/>
    <rect x="450" y="708" width="24" height="50" rx="5" fill="#93c5fd"/>
    <rect x="560" y="612" width="24" height="146" rx="5" fill="#60a5fa"/>
    <rect x="588" y="720" width="24" height="38" rx="5" fill="#93c5fd"/>
    <rect x="790" y="716" width="24" height="42" rx="5" fill="#93c5fd"/>
    <rect x="850" y="704" width="24" height="54" rx="5" fill="#93c5fd"/>

    <rect x="1150" y="502" width="410" height="340" rx="10" fill="#ffffff" stroke="#cbd5e1"/>
    <text x="1176" y="548" fill="#1f2937" font-size="24" font-weight="900">Payment ratio</text>
    <text x="1176" y="626" fill="#64748b" font-size="16" font-weight="900">Successful</text>
    <rect x="1176" y="646" width="360" height="8" rx="4" fill="#e5e7eb"/>
    <rect x="1176" y="646" width="72" height="8" rx="4" fill="#14b8a6"/>
    <text x="1176" y="684" fill="#64748b" font-size="16" font-weight="900">Declined / failed</text>
    <rect x="1176" y="704" width="360" height="8" rx="4" fill="#e5e7eb"/>
    <rect x="1176" y="704" width="282" height="8" rx="4" fill="#f43f5e"/>
    <text x="1176" y="742" fill="#64748b" font-size="16" font-weight="900">Cancelled</text>
    <rect x="1176" y="762" width="360" height="8" rx="4" fill="#e5e7eb"/>
    <rect x="1176" y="762" width="42" height="8" rx="4" fill="#f59e0b"/>
  </g>
</svg>
